<?xml version="1.0" encoding="UTF-8"?>
<!DOCTYPE svg PUBLIC "-//W3C//DTD SVG 1.1//EN" "http://www.w3.org/Graphics/SVG/1.1/DTD/svg11.dtd">
<svg xmlns="http://www.w3.org/2000/svg" version="1.1" width="512px" height="512px" style="shape-rendering:geometricPrecision; text-rendering:geometricPrecision; image-rendering:optimizeQuality; fill-rule:evenodd; clip-rule:evenodd" xmlns:xlink="http://www.w3.org/1999/xlink">
<g><path style="opacity:1" fill="#858d82" d="M -0.5,-0.5 C 170.167,-0.5 340.833,-0.5 511.5,-0.5C 511.5,170.167 511.5,340.833 511.5,511.5C 436.833,511.5 362.167,511.5 287.5,511.5C 309.677,482.47 332.511,453.803 356,425.5C 359.971,419.889 363.138,413.889 365.5,407.5C 367.104,406.713 367.771,405.38 367.5,403.5C 367.157,401.517 367.824,400.183 369.5,399.5C 370.833,396.167 372.167,392.833 373.5,389.5C 374.833,344.838 375.5,299.838 375.5,254.5C 375.5,209.162 374.833,164.162 373.5,119.5C 372.523,116.51 371.189,113.843 369.5,111.5C 368.167,111.5 367.5,110.833 367.5,109.5C 366.167,107.5 364.833,105.5 363.5,103.5C 363.279,102.265 362.612,101.265 361.5,100.5C 358.45,98.4827 355.117,97.4827 351.5,97.5C 350.833,97.5 350.167,97.5 349.5,97.5C 349.082,96.7784 348.416,96.2784 347.5,96C 334.838,95.5001 322.171,95.3334 309.5,95.5C 298.833,95.5 288.167,95.5 277.5,95.5C 276.833,95.5 276.167,95.5 275.5,95.5C 275.5,94.1667 275.5,92.8333 275.5,91.5C 274.167,91.5 272.833,91.5 271.5,91.5C 269.975,87.9752 267.309,85.9752 263.5,85.5C 262.817,83.8235 261.483,83.1568 259.5,83.5C 257.952,82.2057 255.952,81.5391 253.5,81.5C 251.048,81.5391 249.048,82.2057 247.5,83.5C 246.833,83.5 246.167,83.5 245.5,83.5C 242.102,83.1796 238.768,83.513 235.5,84.5C 233.995,85.8415 233.328,87.5082 233.5,89.5C 232.28,91.2821 231.614,93.2821 231.5,95.5C 231.167,95.5 230.833,95.5 230.5,95.5C 230.167,95.5 229.833,95.5 229.5,95.5C 228.833,95.5 228.167,95.5 227.5,95.5C 200.825,95.1669 174.158,95.5002 147.5,96.5C 145.01,98.0828 142.343,99.0828 139.5,99.5C 139.5,100.833 139.5,102.167 139.5,103.5C 136.833,104.833 134.833,106.833 133.5,109.5C 131.847,109.66 130.514,110.326 129.5,111.5C 125.668,112.818 122.501,115.152 120,118.5C 80.3749,166.958 40.2082,214.958 -0.5,262.5C -0.5,174.833 -0.5,87.1667 -0.5,-0.5 Z"/></g>
<g><path style="opacity:1" fill="#ae986d" d="M 259.5,83.5 C 255.5,83.5 251.5,83.5 247.5,83.5C 249.048,82.2057 251.048,81.5391 253.5,81.5C 255.952,81.5391 257.952,82.2057 259.5,83.5 Z"/></g>
<g><path style="opacity:1" fill="#d5964a" d="M 245.5,83.5 C 246.167,83.5 246.833,83.5 247.5,83.5C 251.5,83.5 255.5,83.5 259.5,83.5C 261.483,83.1568 262.817,83.8235 263.5,85.5C 257.5,85.5 251.5,85.5 245.5,85.5C 245.5,84.8333 245.5,84.1667 245.5,83.5 Z"/></g>
<g><path style="opacity:1" fill="#968d6b" d="M 245.5,83.5 C 245.5,84.1667 245.5,84.8333 245.5,85.5C 242.918,85.0254 240.918,85.6921 239.5,87.5C 237.282,87.6138 235.282,88.2804 233.5,89.5C 233.328,87.5082 233.995,85.8415 235.5,84.5C 238.768,83.513 242.102,83.1796 245.5,83.5 Z"/></g>
<g><path style="opacity:1" fill="#c89657" d="M 239.5,87.5 C 237.5,90.8333 234.833,93.5 231.5,95.5C 231.614,93.2821 232.28,91.2821 233.5,89.5C 235.282,88.2804 237.282,87.6138 239.5,87.5 Z"/></g>
<g><path style="opacity:1" fill="#937d63" d="M 227.5,95.5 C 201.677,96.8421 175.677,97.6754 149.5,98C 148.027,98.7096 147.36,99.8762 147.5,101.5C 144.583,101.365 141.916,102.032 139.5,103.5C 139.5,102.167 139.5,100.833 139.5,99.5C 142.343,99.0828 145.01,98.0828 147.5,96.5C 174.158,95.5002 200.825,95.1669 227.5,95.5 Z"/></g>
<g><path style="opacity:1" fill="#92704f" d="M 277.5,95.5 C 288.167,95.5 298.833,95.5 309.5,95.5C 309.5,96.1667 309.5,96.8333 309.5,97.5C 298.833,97.5 288.167,97.5 277.5,97.5C 277.5,96.8333 277.5,96.1667 277.5,95.5 Z"/></g>
<g><path style="opacity:1" fill="#8c7961" d="M 309.5,95.5 C 322.171,95.3334 334.838,95.5001 347.5,96C 348.416,96.2784 349.082,96.7784 349.5,97.5C 336.167,97.5 322.833,97.5 309.5,97.5C 309.5,96.8333 309.5,96.1667 309.5,95.5 Z"/></g>
<g><path style="opacity:1" fill="#926640" d="M 227.5,95.5 C 228.167,95.5 228.833,95.5 229.5,95.5C 228.554,98.3126 226.554,99.646 223.5,99.5C 214.167,99.5 204.833,99.5 195.5,99.5C 195.167,99.5 194.833,99.5 194.5,99.5C 180.151,99.1674 165.818,99.5007 151.5,100.5C 149.336,103.159 148.002,106.159 147.5,109.5C 146.167,109.5 144.833,109.5 143.5,109.5C 143.762,108.022 143.429,106.689 142.5,105.5C 139.271,107.272 136.271,109.272 133.5,111.5C 133.5,110.833 133.5,110.167 133.5,109.5C 134.833,106.833 136.833,104.833 139.5,103.5C 141.916,102.032 144.583,101.365 147.5,101.5C 147.36,99.8762 148.027,98.7096 149.5,98C 175.677,97.6754 201.677,96.8421 227.5,95.5 Z"/></g>
<g><path style="opacity:1" fill="#8f7c67" d="M 351.5,97.5 C 355.117,97.4827 358.45,98.4827 361.5,100.5C 362.612,101.265 363.279,102.265 363.5,103.5C 358.871,102.423 354.871,100.423 351.5,97.5 Z"/></g>
<g><path style="opacity:1" fill="#966740" d="M 277.5,97.5 C 288.167,97.5 298.833,97.5 309.5,97.5C 322.833,97.5 336.167,97.5 349.5,97.5C 350.167,97.5 350.833,97.5 351.5,97.5C 354.871,100.423 358.871,102.423 363.5,103.5C 364.833,105.5 366.167,107.5 367.5,109.5C 364.266,110.576 360.932,111.243 357.5,111.5C 357.5,112.833 357.5,114.167 357.5,115.5C 354.833,114.167 352.833,112.167 351.5,109.5C 351.5,108.167 351.5,106.833 351.5,105.5C 335.5,105.5 319.5,105.5 303.5,105.5C 303.5,104.167 303.5,102.833 303.5,101.5C 317.516,101.833 331.516,101.499 345.5,100.5C 322.843,99.5003 300.176,99.167 277.5,99.5C 277.5,98.8333 277.5,98.1667 277.5,97.5 Z"/></g>
<g><path style="opacity:1" fill="#9a653c" d="M 194.5,99.5 C 194.5,103.167 194.5,106.833 194.5,110.5C 181.656,110.171 168.989,110.505 156.5,111.5C 155.5,111.5 154.5,111.5 153.5,111.5C 150.5,112.168 147.833,113.502 145.5,115.5C 143.113,117.103 140.446,118.103 137.5,118.5C 136.167,118.833 134.833,119.167 133.5,119.5C 133.5,116.833 133.5,114.167 133.5,111.5C 136.271,109.272 139.271,107.272 142.5,105.5C 143.429,106.689 143.762,108.022 143.5,109.5C 144.833,109.5 146.167,109.5 147.5,109.5C 148.002,106.159 149.336,103.159 151.5,100.5C 165.818,99.5007 180.151,99.1674 194.5,99.5 Z"/></g>
<g><path style="opacity:1" fill="#e8953a" d="M 245.5,85.5 C 251.5,85.5 257.5,85.5 263.5,85.5C 267.309,85.9752 269.975,87.9752 271.5,91.5C 271.279,92.7348 270.612,93.7348 269.5,94.5C 271.167,96.1667 272.833,97.8333 274.5,99.5C 275.499,110.814 275.832,122.147 275.5,133.5C 260.833,133.5 246.167,133.5 231.5,133.5C 231.5,120.833 231.5,108.167 231.5,95.5C 234.833,93.5 237.5,90.8333 239.5,87.5C 240.918,85.6921 242.918,85.0254 245.5,85.5 Z"/></g>
<g><path style="opacity:1" fill="#34506b" d="M 259.5,95.5 C 259.5,96.8333 260.167,97.5 261.5,97.5C 261.5,98.8333 262.167,99.5 263.5,99.5C 263.5,108.167 263.5,116.833 263.5,125.5C 262.833,125.5 262.167,125.5 261.5,125.5C 261.5,120.833 261.5,116.167 261.5,111.5C 261.82,108.102 261.487,104.768 260.5,101.5C 259.051,100.383 257.384,99.7163 255.5,99.5C 253.667,99.5854 252.334,100.252 251.5,101.5C 250.167,101.5 248.833,101.5 247.5,101.5C 246.833,101.5 246.167,101.5 245.5,101.5C 246.72,99.7179 247.386,97.7179 247.5,95.5C 251.472,94.3797 255.472,94.3797 259.5,95.5 Z"/></g>
<g><path style="opacity:1" fill="#fcf9f2" d="M 153.5,111.5 C 154.5,111.5 155.5,111.5 156.5,111.5C 168.833,111.5 181.167,111.5 193.5,111.5C 193.172,122.679 193.505,133.679 194.5,144.5C 195.921,147.758 198.254,150.258 201.5,152C 235.498,152.5 269.498,152.667 303.5,152.5C 305.451,152.773 306.951,152.107 308,150.5C 308.333,150.833 308.667,151.167 309,151.5C 309.216,149.616 309.883,147.949 311,146.5C 311.5,134.838 311.667,123.171 311.5,111.5C 320.833,111.5 330.167,111.5 339.5,111.5C 339.5,112.833 339.5,114.167 339.5,115.5C 341.666,115.421 343.666,114.754 345.5,113.5C 346.167,113.833 346.833,114.167 347.5,114.5C 348.953,117.298 349.953,120.298 350.5,123.5C 351.167,122.167 351.833,120.833 352.5,119.5C 353.499,130.814 353.832,142.147 353.5,153.5C 327.646,154.815 301.646,155.482 275.5,155.5C 250.167,155.333 224.833,155.167 199.5,155C 198.027,154.29 197.36,153.124 197.5,151.5C 195.508,151.672 193.842,151.005 192.5,149.5C 191.534,151.396 191.201,153.396 191.5,155.5C 177.484,155.167 163.484,155.501 149.5,156.5C 148.757,157.182 148.091,157.849 147.5,158.5C 146.505,146.345 146.171,134.011 146.5,121.5C 147.276,117.06 149.61,113.727 153.5,111.5 Z"/></g>
<g><path style="opacity:1" fill="#fee7d1" d="M 156.5,111.5 C 168.989,110.505 181.656,110.171 194.5,110.5C 194.5,121.833 194.5,133.167 194.5,144.5C 193.505,133.679 193.172,122.679 193.5,111.5C 181.167,111.5 168.833,111.5 156.5,111.5 Z"/></g>
<g><path style="opacity:1" fill="#905c33" d="M 229.5,95.5 C 229.833,95.5 230.167,95.5 230.5,95.5C 230.5,108.5 230.5,121.5 230.5,134.5C 245.324,135.496 260.324,135.829 275.5,135.5C 274.665,136.943 273.332,137.943 271.5,138.5C 272.833,139.167 274.167,139.833 275.5,140.5C 273.009,141.541 273.009,142.374 275.5,143C 263.607,141.344 251.607,141.178 239.5,142.5C 243.644,143.064 247.644,143.897 251.5,145C 240.343,145.211 229.01,145.545 217.5,146C 215.971,147.791 214.304,149.458 212.5,151C 242.832,151.5 273.165,151.667 303.5,151.5C 303.5,151.833 303.5,152.167 303.5,152.5C 269.498,152.667 235.498,152.5 201.5,152C 198.254,150.258 195.921,147.758 194.5,144.5C 194.5,133.167 194.5,121.833 194.5,110.5C 194.5,106.833 194.5,103.167 194.5,99.5C 194.833,99.5 195.167,99.5 195.5,99.5C 195.5,100.833 195.5,102.167 195.5,103.5C 199.712,102.346 203.712,102.68 207.5,104.5C 212.792,105.495 218.125,105.828 223.5,105.5C 224.38,103.389 224.38,101.389 223.5,99.5C 226.554,99.646 228.554,98.3126 229.5,95.5 Z"/></g>
<g><path style="opacity:1" fill="#975f31" d="M 195.5,99.5 C 204.833,99.5 214.167,99.5 223.5,99.5C 224.38,101.389 224.38,103.389 223.5,105.5C 218.125,105.828 212.792,105.495 207.5,104.5C 203.712,102.68 199.712,102.346 195.5,103.5C 195.5,102.167 195.5,100.833 195.5,99.5 Z"/></g>
<g><path style="opacity:1" fill="#9c6539" d="M 277.5,99.5 C 300.176,99.167 322.843,99.5003 345.5,100.5C 331.516,101.499 317.516,101.833 303.5,101.5C 303.5,102.833 303.5,104.167 303.5,105.5C 319.5,105.5 335.5,105.5 351.5,105.5C 351.5,106.833 351.5,108.167 351.5,109.5C 338.269,107.478 324.936,106.978 311.5,108C 310.619,108.708 309.953,109.542 309.5,110.5C 309.667,122.505 309.5,134.505 309,146.5C 307.924,149.079 306.091,150.746 303.5,151.5C 273.165,151.667 242.832,151.5 212.5,151C 214.304,149.458 215.971,147.791 217.5,146C 229.01,145.545 240.343,145.211 251.5,145C 247.644,143.897 243.644,143.064 239.5,142.5C 251.607,141.178 263.607,141.344 275.5,143C 273.009,142.374 273.009,141.541 275.5,140.5C 274.167,139.833 272.833,139.167 271.5,138.5C 273.332,137.943 274.665,136.943 275.5,135.5C 277.479,123.88 278.146,111.88 277.5,99.5 Z"/></g>
<g><path style="opacity:1" fill="#d89450" d="M 271.5,91.5 C 272.833,91.5 274.167,91.5 275.5,91.5C 275.5,92.8333 275.5,94.1667 275.5,95.5C 276.463,108.451 276.796,121.451 276.5,134.5C 261.167,134.5 245.833,134.5 230.5,134.5C 230.5,121.5 230.5,108.5 230.5,95.5C 230.833,95.5 231.167,95.5 231.5,95.5C 231.5,108.167 231.5,120.833 231.5,133.5C 246.167,133.5 260.833,133.5 275.5,133.5C 275.832,122.147 275.499,110.814 274.5,99.5C 272.833,97.8333 271.167,96.1667 269.5,94.5C 270.612,93.7348 271.279,92.7348 271.5,91.5 Z"/></g>
<g><path style="opacity:1" fill="#c69d6d" d="M 243.5,125.5 C 249.5,125.5 255.5,125.5 261.5,125.5C 262.167,125.5 262.833,125.5 263.5,125.5C 260.572,126.82 257.239,127.486 253.5,127.5C 249.761,127.486 246.428,126.82 243.5,125.5 Z"/></g>
<g><path style="opacity:1" fill="#67685b" d="M 247.5,95.5 C 247.386,97.7179 246.72,99.7179 245.5,101.5C 243.547,107.074 242.88,113.074 243.5,119.5C 243.5,121.5 243.5,123.5 243.5,125.5C 243.167,125.5 242.833,125.5 242.5,125.5C 242.197,116.749 242.53,108.082 243.5,99.5C 244.167,97.5 245.5,96.1667 247.5,95.5 Z"/></g>
<g><path style="opacity:1" fill="#3382bc" d="M 245.5,101.5 C 246.167,101.5 246.833,101.5 247.5,101.5C 247.5,106.833 247.5,112.167 247.5,117.5C 251.025,117.785 254.358,117.119 257.5,115.5C 258.167,115.833 258.833,116.167 259.5,116.5C 258.167,117.833 256.833,119.167 255.5,120.5C 256.167,121.167 256.833,121.833 257.5,122.5C 253.555,123.491 249.555,123.824 245.5,123.5C 245.843,121.517 245.176,120.183 243.5,119.5C 242.88,113.074 243.547,107.074 245.5,101.5 Z"/></g>
<g><path style="opacity:1" fill="#8e7d62" d="M 263.5,99.5 C 264.825,103.445 265.492,107.778 265.5,112.5C 265.492,117.222 264.825,121.555 263.5,125.5C 263.5,116.833 263.5,108.167 263.5,99.5 Z"/></g>
<g><path style="opacity:1" fill="#95958a" d="M 243.5,99.5 C 242.53,108.082 242.197,116.749 242.5,125.5C 241.834,121.347 241.501,117.013 241.5,112.5C 241.508,107.778 242.175,103.445 243.5,99.5 Z"/></g>
<g><path style="opacity:1" fill="#387baa" d="M 247.5,101.5 C 248.833,101.5 250.167,101.5 251.5,101.5C 252.943,102.335 253.943,103.668 254.5,105.5C 255.842,103.995 257.508,103.328 259.5,103.5C 259.84,106.144 259.173,108.477 257.5,110.5C 258.689,111.429 260.022,111.762 261.5,111.5C 261.5,116.167 261.5,120.833 261.5,125.5C 255.5,125.5 249.5,125.5 243.5,125.5C 243.5,123.5 243.5,121.5 243.5,119.5C 245.176,120.183 245.843,121.517 245.5,123.5C 249.555,123.824 253.555,123.491 257.5,122.5C 256.833,121.833 256.167,121.167 255.5,120.5C 256.833,119.167 258.167,117.833 259.5,116.5C 258.833,116.167 258.167,115.833 257.5,115.5C 254.358,117.119 251.025,117.785 247.5,117.5C 247.5,112.167 247.5,106.833 247.5,101.5 Z"/></g>
<g><path style="opacity:1" fill="#2161a2" d="M 261.5,111.5 C 260.022,111.762 258.689,111.429 257.5,110.5C 259.173,108.477 259.84,106.144 259.5,103.5C 257.508,103.328 255.842,103.995 254.5,105.5C 253.943,103.668 252.943,102.335 251.5,101.5C 252.334,100.252 253.667,99.5854 255.5,99.5C 257.384,99.7163 259.051,100.383 260.5,101.5C 261.487,104.768 261.82,108.102 261.5,111.5 Z"/></g>
<g><path style="opacity:1" fill="#9a6d46" d="M 261.5,97.5 C 262.833,97.5 263.5,98.1667 263.5,99.5C 263.5,98.1667 262.833,97.5 261.5,97.5 Z"/></g>
<g><path style="opacity:1" fill="#96775b" d="M 259.5,95.5 C 260.833,95.5 261.5,96.1667 261.5,97.5C 261.5,96.1667 260.833,95.5 259.5,95.5 Z"/></g>
<g><path style="opacity:1" fill="#af6927" d="M 275.5,95.5 C 276.167,95.5 276.833,95.5 277.5,95.5C 277.5,96.1667 277.5,96.8333 277.5,97.5C 277.5,98.1667 277.5,98.8333 277.5,99.5C 278.146,111.88 277.479,123.88 275.5,135.5C 260.324,135.829 245.324,135.496 230.5,134.5C 245.833,134.5 261.167,134.5 276.5,134.5C 276.796,121.451 276.463,108.451 275.5,95.5 Z"/></g>
<g><path style="opacity:1" fill="#d7c2b5" d="M 146.5,121.5 C 146.171,134.011 146.505,146.345 147.5,158.5C 147.5,158.833 147.5,159.167 147.5,159.5C 146.833,159.5 146.167,159.5 145.5,159.5C 145.171,146.656 145.505,133.989 146.5,121.5 Z"/></g>
<g><path style="opacity:1" fill="#fcf6e8" d="M 309.5,110.5 C 321.838,110.333 334.171,110.5 346.5,111C 349.902,112.4 352.736,114.567 355,117.5C 356.464,131.068 356.964,144.735 356.5,158.5C 355.36,156.955 354.36,155.288 353.5,153.5C 353.832,142.147 353.499,130.814 352.5,119.5C 351.833,120.833 351.167,122.167 350.5,123.5C 349.953,120.298 348.953,117.298 347.5,114.5C 346.833,114.167 346.167,113.833 345.5,113.5C 343.666,114.754 341.666,115.421 339.5,115.5C 339.5,114.167 339.5,112.833 339.5,111.5C 330.167,111.5 320.833,111.5 311.5,111.5C 311.667,123.171 311.5,134.838 311,146.5C 309.883,147.949 309.216,149.616 309,151.5C 308.667,151.167 308.333,150.833 308,150.5C 306.951,152.107 305.451,152.773 303.5,152.5C 303.5,152.167 303.5,151.833 303.5,151.5C 306.091,150.746 307.924,149.079 309,146.5C 309.5,134.505 309.667,122.505 309.5,110.5 Z"/></g>
<g><path style="opacity:1" fill="#fbe5db" d="M 341.5,141.5 C 341.5,140.833 341.5,140.167 341.5,139.5C 342.833,139.5 343.5,138.833 343.5,137.5C 349.009,126.225 345.509,120.225 333,119.5C 329.568,119.33 326.401,119.996 323.5,121.5C 323.721,120.265 324.388,119.265 325.5,118.5C 344.586,115.256 351.253,122.923 345.5,141.5C 344.167,141.5 342.833,141.5 341.5,141.5 Z"/></g>
<g><path style="opacity:1" fill="#f55f4c" d="M 339.5,123.5 C 340.735,123.721 341.735,124.388 342.5,125.5C 343.491,129.445 343.824,133.445 343.5,137.5C 343.5,138.833 342.833,139.5 341.5,139.5C 338.379,139.538 335.379,140.205 332.5,141.5C 330.223,140.522 327.89,139.855 325.5,139.5C 324.28,137.718 323.614,135.718 323.5,133.5C 324.833,133.5 326.167,133.5 327.5,133.5C 327.551,131.43 326.885,129.597 325.5,128C 326.032,125.98 327.365,125.147 329.5,125.5C 329.5,128.167 329.5,130.833 329.5,133.5C 331.483,133.843 332.817,133.176 333.5,131.5C 335.176,130.817 335.843,129.483 335.5,127.5C 336.833,126.167 338.167,124.833 339.5,123.5 Z"/></g>
<g><path style="opacity:1" fill="#a85b4c" d="M 335.5,127.5 C 335.843,129.483 335.176,130.817 333.5,131.5C 331.824,130.817 331.157,129.483 331.5,127.5C 332.833,127.5 334.167,127.5 335.5,127.5 Z"/></g>
<g><path style="opacity:1" fill="#ec6b56" d="M 339.5,123.5 C 338.167,124.833 336.833,126.167 335.5,127.5C 334.167,127.5 332.833,127.5 331.5,127.5C 331.157,129.483 331.824,130.817 333.5,131.5C 332.817,133.176 331.483,133.843 329.5,133.5C 329.5,130.833 329.5,128.167 329.5,125.5C 327.365,125.147 326.032,125.98 325.5,128C 326.885,129.597 327.551,131.43 327.5,133.5C 326.167,133.5 324.833,133.5 323.5,133.5C 323.614,135.718 324.28,137.718 325.5,139.5C 322.95,139.439 321.45,138.106 321,135.5C 320.199,132.633 320.366,129.966 321.5,127.5C 323.753,126.257 325.753,124.59 327.5,122.5C 329.5,122.167 331.5,121.833 333.5,121.5C 335.952,121.539 337.952,122.206 339.5,123.5 Z"/></g>
<g><path style="opacity:1" fill="#dd7b6b" d="M 343.5,137.5 C 343.824,133.445 343.491,129.445 342.5,125.5C 341.735,124.388 340.735,123.721 339.5,123.5C 337.952,122.206 335.952,121.539 333.5,121.5C 331.5,121.833 329.5,122.167 327.5,122.5C 325.753,124.59 323.753,126.257 321.5,127.5C 321.704,125.315 322.37,123.315 323.5,121.5C 326.401,119.996 329.568,119.33 333,119.5C 345.509,120.225 349.009,126.225 343.5,137.5 Z"/></g>
<g><path style="opacity:1" fill="#de7f66" d="M 325.5,139.5 C 327.89,139.855 330.223,140.522 332.5,141.5C 335.379,140.205 338.379,139.538 341.5,139.5C 341.5,140.167 341.5,140.833 341.5,141.5C 337.69,143.31 333.69,143.81 329.5,143C 327.456,142.502 326.122,141.335 325.5,139.5 Z"/></g>
<g><path style="opacity:1" fill="#6c4730" d="M 153.5,111.5 C 149.61,113.727 147.276,117.06 146.5,121.5C 145.505,133.989 145.171,146.656 145.5,159.5C 145.5,166.167 145.5,172.833 145.5,179.5C 144.168,169.856 143.501,159.856 143.5,149.5C 143.591,138.072 144.257,126.738 145.5,115.5C 147.833,113.502 150.5,112.168 153.5,111.5 Z"/></g>
<g><path style="opacity:1" fill="#e5f5f7" d="M 353.5,153.5 C 354.36,155.288 355.36,156.955 356.5,158.5C 356.5,158.833 356.5,159.167 356.5,159.5C 286.833,159.5 217.167,159.5 147.5,159.5C 147.5,159.167 147.5,158.833 147.5,158.5C 148.091,157.849 148.757,157.182 149.5,156.5C 163.484,155.501 177.484,155.167 191.5,155.5C 191.201,153.396 191.534,151.396 192.5,149.5C 193.842,151.005 195.508,151.672 197.5,151.5C 197.36,153.124 198.027,154.29 199.5,155C 224.833,155.167 250.167,155.333 275.5,155.5C 301.646,155.482 327.646,154.815 353.5,153.5 Z"/></g>
<g><path style="opacity:1" fill="#6d4f3a" d="M 131.5,121.5 C 131.5,210.833 131.5,300.167 131.5,389.5C 130.833,389.5 130.167,389.5 129.5,389.5C 128.836,299.827 129.503,210.494 131.5,121.5 Z"/></g>
<g><path style="opacity:1" fill="#4899d2" d="M 147.5,159.5 C 217.167,159.5 286.833,159.5 356.5,159.5C 357.49,165.31 357.823,171.31 357.5,177.5C 287.5,177.5 217.5,177.5 147.5,177.5C 147.5,171.5 147.5,165.5 147.5,159.5 Z"/></g>
<g><path style="opacity:1" fill="#57625d" d="M 129.5,111.5 C 128.196,158.775 127.53,206.108 127.5,253.5C 127.5,299.172 128.167,344.505 129.5,389.5C 130.167,389.5 130.833,389.5 131.5,389.5C 131.5,392.833 131.5,396.167 131.5,399.5C 132.833,399.5 134.167,399.5 135.5,399.5C 136.833,402.833 138.167,406.167 139.5,409.5C 140.833,409.5 142.167,409.5 143.5,409.5C 146.09,411.477 148.757,413.477 151.5,415.5C 151.5,415.833 151.5,416.167 151.5,416.5C 152.091,417.151 152.757,417.818 153.5,418.5C 219.497,419.5 285.497,419.833 351.5,419.5C 351.5,418.167 351.5,416.833 351.5,415.5C 353.359,413.87 355.359,412.204 357.5,410.5C 360.301,409.68 362.968,408.68 365.5,407.5C 363.138,413.889 359.971,419.889 356,425.5C 332.511,453.803 309.677,482.47 287.5,511.5C 191.5,511.5 95.5,511.5 -0.5,511.5C -0.5,428.5 -0.5,345.5 -0.5,262.5C 40.2082,214.958 80.3749,166.958 120,118.5C 122.501,115.152 125.668,112.818 129.5,111.5 Z"/></g>
<g><path style="opacity:1" fill="#794829" d="M 133.5,111.5 C 133.5,114.167 133.5,116.833 133.5,119.5C 133.5,143.5 133.5,167.5 133.5,191.5C 133.5,256.167 133.5,320.833 133.5,385.5C 133.5,388.167 133.5,390.833 133.5,393.5C 135.288,393.785 136.955,393.452 138.5,392.5C 138.156,303.147 137.156,213.814 135.5,124.5C 136.204,122.465 136.871,120.465 137.5,118.5C 140.446,118.103 143.113,117.103 145.5,115.5C 144.257,126.738 143.591,138.072 143.5,149.5C 143.501,159.856 144.168,169.856 145.5,179.5C 145.5,188.167 145.5,196.833 145.5,205.5C 144.833,204.833 144.167,204.167 143.5,203.5C 143.824,199.445 143.491,195.445 142.5,191.5C 142.167,223.5 141.833,255.5 141.5,287.5C 141.5,319.84 142.167,351.84 143.5,383.5C 144.285,386.858 145.285,390.191 146.5,393.5C 147.265,394.612 148.265,395.279 149.5,395.5C 152.502,398.003 155.835,400.003 159.5,401.5C 159.5,402.167 159.5,402.833 159.5,403.5C 212.494,405.164 265.827,406.164 319.5,406.5C 314.167,407.167 308.833,407.833 303.5,408.5C 288.833,408.833 274.167,409.167 259.5,409.5C 235.483,408.954 211.483,408.954 187.5,409.5C 176.165,408.778 164.832,408.111 153.5,407.5C 153.5,408.833 153.5,410.167 153.5,411.5C 150.266,410.424 146.932,409.757 143.5,409.5C 142.167,409.5 140.833,409.5 139.5,409.5C 138.167,406.167 136.833,402.833 135.5,399.5C 134.167,399.5 132.833,399.5 131.5,399.5C 131.5,396.167 131.5,392.833 131.5,389.5C 131.5,300.167 131.5,210.833 131.5,121.5C 130.931,117.671 131.598,114.337 133.5,111.5 Z"/></g>
<g><path style="opacity:1" fill="#936c4a" d="M 351.5,109.5 C 352.833,112.167 354.833,114.167 357.5,115.5C 358.944,135.407 360.611,155.407 362.5,175.5C 363.167,170.167 363.833,164.833 364.5,159.5C 365.499,170.146 365.832,180.813 365.5,191.5C 364.167,191.5 362.833,191.5 361.5,191.5C 361.827,186.786 361.493,182.12 360.5,177.5C 359.735,178.612 358.735,179.279 357.5,179.5C 357.5,178.833 357.5,178.167 357.5,177.5C 357.823,171.31 357.49,165.31 356.5,159.5C 356.5,159.167 356.5,158.833 356.5,158.5C 356.964,144.735 356.464,131.068 355,117.5C 352.736,114.567 349.902,112.4 346.5,111C 334.171,110.5 321.838,110.333 309.5,110.5C 309.953,109.542 310.619,108.708 311.5,108C 324.936,106.978 338.269,107.478 351.5,109.5 Z"/></g>
<g><path style="opacity:1" fill="#898063" d="M 373.5,119.5 C 374.833,164.162 375.5,209.162 375.5,254.5C 375.5,299.838 374.833,344.838 373.5,389.5C 373.5,299.5 373.5,209.5 373.5,119.5 Z"/></g>
<g><path style="opacity:1" fill="#648cad" d="M 145.5,159.5 C 146.167,159.5 146.833,159.5 147.5,159.5C 147.5,165.5 147.5,171.5 147.5,177.5C 217.5,177.5 287.5,177.5 357.5,177.5C 357.5,178.167 357.5,178.833 357.5,179.5C 356.833,179.5 356.167,179.5 355.5,179.5C 306.167,179.5 256.833,179.5 207.5,179.5C 187.5,179.5 167.5,179.5 147.5,179.5C 146.833,179.5 146.167,179.5 145.5,179.5C 145.5,172.833 145.5,166.167 145.5,159.5 Z"/></g>
<g><path style="opacity:1" fill="#e2edf4" d="M 207.5,179.5 C 256.833,179.5 306.167,179.5 355.5,179.5C 306.511,181.495 257.178,182.162 207.5,181.5C 207.5,180.833 207.5,180.167 207.5,179.5 Z"/></g>
<g><path style="opacity:1" fill="#f4efe4" d="M 355.5,179.5 C 356.167,179.5 356.833,179.5 357.5,179.5C 357.5,181.5 357.5,183.5 357.5,185.5C 357.667,254.167 357.5,322.834 357,391.5C 355.303,394.02 353.47,396.353 351.5,398.5C 351.151,395.955 351.984,393.955 354,392.5C 354.978,384.198 355.478,375.865 355.5,367.5C 354.886,310.159 354.219,252.825 353.5,195.5C 354.167,192.833 354.833,190.167 355.5,187.5C 355.167,186.167 354.833,184.833 354.5,183.5C 329.98,184.824 305.314,185.491 280.5,185.5C 256.167,185.167 231.833,184.833 207.5,184.5C 186.208,182.841 186.208,181.841 207.5,181.5C 257.178,182.162 306.511,181.495 355.5,179.5 Z"/></g>
<g><path style="opacity:1" fill="#fcfbf5" d="M 147.5,179.5 C 167.5,179.5 187.5,179.5 207.5,179.5C 207.5,180.167 207.5,180.833 207.5,181.5C 186.208,181.841 186.208,182.841 207.5,184.5C 231.833,184.833 256.167,185.167 280.5,185.5C 305.314,185.491 329.98,184.824 354.5,183.5C 354.833,184.833 355.167,186.167 355.5,187.5C 354.833,190.167 354.167,192.833 353.5,195.5C 354.219,252.825 354.886,310.159 355.5,367.5C 355.478,375.865 354.978,384.198 354,392.5C 351.984,393.955 351.151,395.955 351.5,398.5C 349.426,399.514 347.426,400.514 345.5,401.5C 344.167,401.833 342.833,402.167 341.5,402.5C 280.792,402.826 220.125,402.492 159.5,401.5C 155.835,400.003 152.502,398.003 149.5,395.5C 149.5,394.833 149.5,394.167 149.5,393.5C 149.012,390.289 149.679,387.456 151.5,385C 150.437,383.812 149.103,383.312 147.5,383.5C 147.5,315.5 147.5,247.5 147.5,179.5 Z"/></g>
<g><path style="opacity:1" fill="#fdf5e2" d="M 203.5,189.5 C 190.167,189.5 176.833,189.5 163.5,189.5C 169.733,187.341 176.4,186.008 183.5,185.5C 190.6,186.008 197.267,187.341 203.5,189.5 Z"/></g>
<g><path style="opacity:1" fill="#dea25f" d="M 163.5,189.5 C 176.833,189.5 190.167,189.5 203.5,189.5C 204.833,190.833 206.167,192.167 207.5,193.5C 191.61,191.626 175.61,190.96 159.5,191.5C 160.183,189.824 161.517,189.157 163.5,189.5 Z"/></g>
<g><path style="opacity:1" fill="#655b4e" d="M 133.5,109.5 C 133.5,110.167 133.5,110.833 133.5,111.5C 131.598,114.337 130.931,117.671 131.5,121.5C 129.503,210.494 128.836,299.827 129.5,389.5C 128.167,344.505 127.5,299.172 127.5,253.5C 127.53,206.108 128.196,158.775 129.5,111.5C 130.514,110.326 131.847,109.66 133.5,109.5 Z"/></g>
<g><path style="opacity:1" fill="#ea9a48" d="M 159.5,191.5 C 175.61,190.96 191.61,191.626 207.5,193.5C 207.665,197.182 207.499,200.848 207,204.5C 205.989,205.337 204.822,205.67 203.5,205.5C 188.882,204.003 174.216,203.337 159.5,203.5C 159.5,199.833 159.5,196.167 159.5,192.5C 159.5,192.167 159.5,191.833 159.5,191.5 Z"/></g>
<g><path style="opacity:1" fill="#956339" d="M 367.5,109.5 C 367.5,110.833 368.167,111.5 369.5,111.5C 371.049,122.094 371.716,132.76 371.5,143.5C 369.836,191.16 368.836,239.16 368.5,287.5C 366.668,303.456 366.168,319.456 367,335.5C 367.171,330.136 367.671,324.802 368.5,319.5C 368.842,335.854 369.842,351.854 371.5,367.5C 371.362,378.207 370.696,388.874 369.5,399.5C 367.824,400.183 367.157,401.517 367.5,403.5C 364.313,404.339 361.313,405.672 358.5,407.5C 355.589,406.581 353.255,404.914 351.5,402.5C 351.5,401.5 351.5,400.5 351.5,399.5C 352.833,399.5 354.167,399.5 355.5,399.5C 355.423,396.988 356.423,394.988 358.5,393.5C 358.833,358.833 359.167,324.167 359.5,289.5C 359.5,254.494 358.833,219.827 357.5,185.5C 357.5,183.5 357.5,181.5 357.5,179.5C 358.735,179.279 359.735,178.612 360.5,177.5C 361.493,182.12 361.827,186.786 361.5,191.5C 362.833,191.5 364.167,191.5 365.5,191.5C 365.832,180.813 365.499,170.146 364.5,159.5C 363.833,164.833 363.167,170.167 362.5,175.5C 360.611,155.407 358.944,135.407 357.5,115.5C 357.5,114.167 357.5,112.833 357.5,111.5C 360.932,111.243 364.266,110.576 367.5,109.5 Z"/></g>
<g><path style="opacity:1" fill="#888984" d="M 381.5,143.5 C 381.5,191.5 381.5,239.5 381.5,287.5C 380.167,287.5 378.833,287.5 377.5,287.5C 377.5,239.5 377.5,191.5 377.5,143.5C 378.833,143.5 380.167,143.5 381.5,143.5 Z"/></g>
<g><path style="opacity:1" fill="#d6a369" d="M 159.5,192.5 C 159.5,196.167 159.5,199.833 159.5,203.5C 158.252,202.666 157.585,201.333 157.5,199.5C 157.44,196.845 158.107,194.511 159.5,192.5 Z"/></g>
<g><path style="opacity:1" fill="#e6a461" d="M 159.5,203.5 C 174.216,203.337 188.882,204.003 203.5,205.5C 196.867,206.83 189.867,207.497 182.5,207.5C 175.5,207.333 168.5,207.167 161.5,207C 160.027,206.29 159.36,205.124 159.5,203.5 Z"/></g>
<g><path style="opacity:1" fill="#7f4324" d="M 143.5,203.5 C 143.5,263.5 143.5,323.5 143.5,383.5C 142.167,351.84 141.5,319.84 141.5,287.5C 141.833,255.5 142.167,223.5 142.5,191.5C 143.491,195.445 143.824,199.445 143.5,203.5 Z"/></g>
<g><path style="opacity:1" fill="#818f7e" d="M 381.5,143.5 C 382.833,167.157 383.5,191.157 383.5,215.5C 383.5,239.843 382.833,263.843 381.5,287.5C 381.5,239.5 381.5,191.5 381.5,143.5 Z"/></g>
<g><path style="opacity:1" fill="#e9fcfd" d="M 167.5,244.5 C 174.022,244.823 180.355,244.49 186.5,243.5C 187.654,237.013 187.821,230.346 187,223.5C 180.734,222.174 174.568,222.174 168.5,223.5C 167.509,229.979 167.176,236.646 167.5,243.5C 165.537,236.576 164.87,229.243 165.5,221.5C 166.552,221.649 167.552,221.483 168.5,221C 168.167,220.667 167.833,220.333 167.5,220C 175.676,218.952 183.676,219.618 191.5,222C 189.553,229.558 188.886,237.391 189.5,245.5C 182.302,247.188 174.969,247.855 167.5,247.5C 167.5,246.5 167.5,245.5 167.5,244.5 Z"/></g>
<g><path style="opacity:1" fill="#ddc2a8" d="M 195.5,223.5 C 240.172,223.167 284.838,223.5 329.5,224.5C 329.376,225.107 329.043,225.44 328.5,225.5C 283.821,226.161 239.487,225.495 195.5,223.5 Z"/></g>
<g><path style="opacity:1" fill="#efdfcf" d="M 195.5,223.5 C 239.487,225.495 283.821,226.161 328.5,225.5C 284.003,226.499 239.336,226.832 194.5,226.5C 194.263,225.209 194.596,224.209 195.5,223.5 Z"/></g>
<g><path style="opacity:1" fill="#fcfdfd" d="M 191.5,227.5 C 194.897,227.741 198.231,228.407 201.5,229.5C 203.228,229.41 204.894,229.077 206.5,228.5C 245.125,229.327 283.792,229.827 322.5,230C 321.5,230.333 320.5,230.667 319.5,231C 321.577,231.192 323.577,231.692 325.5,232.5C 285.413,232.857 245.413,233.857 205.5,235.5C 203.404,233.734 201.071,232.401 198.5,231.5C 197.176,233.105 194.843,233.771 191.5,233.5C 191.5,231.5 191.5,229.5 191.5,227.5 Z"/></g>
<g><path style="opacity:1" fill="#70a2c4" d="M 186.5,243.5 C 185.5,243.5 184.5,243.5 183.5,243.5C 183.5,242.833 183.5,242.167 183.5,241.5C 185.453,235.926 186.12,229.926 185.5,223.5C 182.833,223.5 180.167,223.5 177.5,223.5C 174.833,223.5 172.167,223.5 169.5,223.5C 169.5,230.167 169.5,236.833 169.5,243.5C 168.509,237.021 168.176,230.354 168.5,223.5C 174.568,222.174 180.734,222.174 187,223.5C 187.821,230.346 187.654,237.013 186.5,243.5 Z"/></g>
<g><path style="opacity:1" fill="#4ba2e4" d="M 177.5,223.5 C 180.167,223.5 182.833,223.5 185.5,223.5C 186.12,229.926 185.453,235.926 183.5,241.5C 181.5,241.5 179.5,241.5 177.5,241.5C 177.5,235.5 177.5,229.5 177.5,223.5 Z"/></g>
<g><path style="opacity:1" fill="#50a3db" d="M 177.5,223.5 C 177.5,229.5 177.5,235.5 177.5,241.5C 179.5,241.5 181.5,241.5 183.5,241.5C 183.5,242.167 183.5,242.833 183.5,243.5C 178.833,243.5 174.167,243.5 169.5,243.5C 169.5,236.833 169.5,230.167 169.5,223.5C 172.167,223.5 174.833,223.5 177.5,223.5 Z"/></g>
<g><path style="opacity:1" fill="#844625" d="M 133.5,191.5 C 134.833,223.826 135.5,256.493 135.5,289.5C 135.333,322.167 135.167,354.833 135,387.5C 134.722,386.584 134.222,385.918 133.5,385.5C 133.5,320.833 133.5,256.167 133.5,191.5 Z"/></g>
<g><path style="opacity:1" fill="#e8dac9" d="M 145.5,179.5 C 146.167,179.5 146.833,179.5 147.5,179.5C 147.5,247.5 147.5,315.5 147.5,383.5C 149.103,383.312 150.437,383.812 151.5,385C 149.679,387.456 149.012,390.289 149.5,393.5C 147.489,391.333 146.322,388.666 146,385.5C 145.5,325.501 145.333,265.501 145.5,205.5C 145.5,196.833 145.5,188.167 145.5,179.5 Z"/></g>
<g><path style="opacity:1" fill="#e8dbc8" d="M 195.5,239.5 C 217.323,240.833 239.49,241.5 262,241.5C 284.51,241.5 306.677,240.833 328.5,239.5C 329.404,240.209 329.737,241.209 329.5,242.5C 284.5,242.5 239.5,242.5 194.5,242.5C 194.263,241.209 194.596,240.209 195.5,239.5 Z"/></g>
<g><path style="opacity:1" fill="#dec5a9" d="M 195.5,239.5 C 239.833,239.5 284.167,239.5 328.5,239.5C 306.677,240.833 284.51,241.5 262,241.5C 239.49,241.5 217.323,240.833 195.5,239.5 Z"/></g>
<g><path style="opacity:1" fill="#98c0d9" d="M 168.5,223.5 C 168.176,230.354 168.509,237.021 169.5,243.5C 174.167,243.5 178.833,243.5 183.5,243.5C 184.5,243.5 185.5,243.5 186.5,243.5C 180.355,244.49 174.022,244.823 167.5,244.5C 167.5,244.167 167.5,243.833 167.5,243.5C 167.176,236.646 167.509,229.979 168.5,223.5 Z"/></g>
<g><path style="opacity:1" fill="#946543" d="M 369.5,111.5 C 371.189,113.843 372.523,116.51 373.5,119.5C 373.5,209.5 373.5,299.5 373.5,389.5C 372.167,392.833 370.833,396.167 369.5,399.5C 370.696,388.874 371.362,378.207 371.5,367.5C 371.5,292.833 371.5,218.167 371.5,143.5C 371.716,132.76 371.049,122.094 369.5,111.5 Z"/></g>
<g><path style="opacity:1" fill="#ddd1be" d="M 195.5,256.5 C 240.167,256.5 284.833,256.5 329.5,256.5C 329.5,257.5 329.5,258.5 329.5,259.5C 284.495,259.833 239.495,259.5 194.5,258.5C 194.863,257.817 195.196,257.15 195.5,256.5 Z"/></g>
<g><path style="opacity:1" fill="#e4b689" d="M 168.5,255.5 C 174.833,255.5 181.167,255.5 187.5,255.5C 187.666,262.508 187.5,269.508 187,276.5C 180.667,277.833 174.333,277.833 168,276.5C 167.205,269.42 167.372,262.42 168.5,255.5 Z"/></g>
<g><path style="opacity:1" fill="#e39755" d="M 185.5,257.5 C 184.265,257.721 183.265,258.388 182.5,259.5C 181.833,263.5 181.167,267.5 180.5,271.5C 179.833,266.833 179.167,262.167 178.5,257.5C 176.477,259.173 174.144,259.84 171.5,259.5C 172.089,263.971 171.423,267.971 169.5,271.5C 169.5,266.5 169.5,261.5 169.5,256.5C 175.026,256.179 180.36,256.512 185.5,257.5 Z"/></g>
<g><path style="opacity:1" fill="#ee9248" d="M 185.5,257.5 C 185.5,263.5 185.5,269.5 185.5,275.5C 180.167,275.5 174.833,275.5 169.5,275.5C 169.5,274.167 169.5,272.833 169.5,271.5C 171.423,267.971 172.089,263.971 171.5,259.5C 174.144,259.84 176.477,259.173 178.5,257.5C 179.167,262.167 179.833,266.833 180.5,271.5C 181.167,267.5 181.833,263.5 182.5,259.5C 183.265,258.388 184.265,257.721 185.5,257.5 Z"/></g>
<g><path style="opacity:1" fill="#d9ccb8" d="M 194.5,273.5 C 239.168,273.333 283.835,273.5 328.5,274C 328.957,274.414 329.291,274.914 329.5,275.5C 284.505,276.5 239.505,276.833 194.5,276.5C 194.5,275.5 194.5,274.5 194.5,273.5 Z"/></g>
<g><path style="opacity:1" fill="#9c613b" d="M 371.5,143.5 C 371.5,218.167 371.5,292.833 371.5,367.5C 369.842,351.854 368.842,335.854 368.5,319.5C 367.671,324.802 367.171,330.136 367,335.5C 366.168,319.456 366.668,303.456 368.5,287.5C 368.836,239.16 369.836,191.16 371.5,143.5 Z"/></g>
<g><path style="opacity:1" fill="#dcccba" d="M 195.5,291.5 C 240.167,291.5 284.833,291.5 329.5,291.5C 329.5,292.5 329.5,293.5 329.5,294.5C 328.167,294.5 326.833,294.5 325.5,294.5C 282.167,294.5 238.833,294.5 195.5,294.5C 195.5,293.5 195.5,292.5 195.5,291.5 Z"/></g>
<g><path style="opacity:1" fill="#faebd8" d="M 195.5,291.5 C 195.5,292.5 195.5,293.5 195.5,294.5C 238.833,294.5 282.167,294.5 325.5,294.5C 282.003,295.499 238.337,295.832 194.5,295.5C 194.232,293.901 194.566,292.568 195.5,291.5 Z"/></g>
<g><path style="opacity:1" fill="#fad9ad" d="M 187.5,287.5 C 187.825,295.352 187.492,303.018 186.5,310.5C 186.825,303.313 186.491,296.313 185.5,289.5C 184.833,289.5 184.167,289.5 183.5,289.5C 178.5,289.5 173.5,289.5 168.5,289.5C 168.5,296.5 168.5,303.5 168.5,310.5C 167.509,303.687 167.175,296.687 167.5,289.5C 173.75,287.541 180.416,286.874 187.5,287.5 Z"/></g>
<g><path style="opacity:1" fill="#d6c6b6" d="M 328.5,308.5 C 329.833,309.167 329.833,309.833 328.5,310.5C 151.167,309.833 151.167,309.167 328.5,308.5 Z"/></g>
<g><path style="opacity:1" fill="#eedece" d="M 328.5,308.5 C 151.167,309.167 151.167,309.833 328.5,310.5C 284.003,311.499 239.336,311.832 194.5,311.5C 194.5,310.167 194.5,308.833 194.5,307.5C 239.336,307.168 284.003,307.501 328.5,308.5 Z"/></g>
<g><path style="opacity:1" fill="#fdf6e2" d="M 187.5,287.5 C 188.824,291.107 189.491,295.107 189.5,299.5C 192.285,310.35 188.285,315.017 177.5,313.5C 166.995,315.326 162.995,310.992 165.5,300.5C 165.511,296.435 166.178,292.768 167.5,289.5C 167.175,296.687 167.509,303.687 168.5,310.5C 174.5,310.5 180.5,310.5 186.5,310.5C 187.492,303.018 187.825,295.352 187.5,287.5 Z"/></g>
<g><path style="opacity:1" fill="#d09869" d="M 183.5,289.5 C 179.285,291.436 174.619,292.103 169.5,291.5C 169.5,297.5 169.5,303.5 169.5,309.5C 174.833,309.5 180.167,309.5 185.5,309.5C 185.5,302.833 185.5,296.167 185.5,289.5C 186.491,296.313 186.825,303.313 186.5,310.5C 180.5,310.5 174.5,310.5 168.5,310.5C 168.5,303.5 168.5,296.5 168.5,289.5C 173.5,289.5 178.5,289.5 183.5,289.5 Z"/></g>
<g><path style="opacity:1" fill="#ed934a" d="M 183.5,289.5 C 184.167,289.5 184.833,289.5 185.5,289.5C 185.5,296.167 185.5,302.833 185.5,309.5C 180.167,309.5 174.833,309.5 169.5,309.5C 169.5,303.5 169.5,297.5 169.5,291.5C 174.619,292.103 179.285,291.436 183.5,289.5 Z"/></g>
<g><path style="opacity:1" fill="#7e4826" d="M 137.5,118.5 C 136.871,120.465 136.204,122.465 135.5,124.5C 137.156,213.814 138.156,303.147 138.5,392.5C 136.955,393.452 135.288,393.785 133.5,393.5C 133.5,390.833 133.5,388.167 133.5,385.5C 134.222,385.918 134.722,386.584 135,387.5C 135.167,354.833 135.333,322.167 135.5,289.5C 135.5,256.493 134.833,223.826 133.5,191.5C 133.5,167.5 133.5,143.5 133.5,119.5C 134.833,119.167 136.167,118.833 137.5,118.5 Z"/></g>
<g><path style="opacity:1" fill="#866244" d="M 357.5,185.5 C 358.833,219.827 359.5,254.494 359.5,289.5C 359.167,324.167 358.833,358.833 358.5,393.5C 356.423,394.988 355.423,396.988 355.5,399.5C 354.167,399.5 352.833,399.5 351.5,399.5C 351.5,400.5 351.5,401.5 351.5,402.5C 349.435,402.483 347.435,402.15 345.5,401.5C 347.426,400.514 349.426,399.514 351.5,398.5C 353.47,396.353 355.303,394.02 357,391.5C 357.5,322.834 357.667,254.167 357.5,185.5 Z"/></g>
<g><path style="opacity:1" fill="#f9f2e5" d="M 329.5,327.5 C 329.167,327.5 328.833,327.5 328.5,327.5C 284.167,327.5 239.833,327.5 195.5,327.5C 239.864,326.06 284.531,324.727 329.5,323.5C 329.5,324.833 329.5,326.167 329.5,327.5 Z"/></g>
<g><path style="opacity:1" fill="#ecddcd" d="M 194.5,327.5 C 194.833,327.5 195.167,327.5 195.5,327.5C 217.323,328.833 239.49,329.5 262,329.5C 284.51,329.5 306.677,328.833 328.5,327.5C 328.833,327.5 329.167,327.5 329.5,327.5C 329.5,328.5 329.5,329.5 329.5,330.5C 326.167,330.5 322.833,330.5 319.5,330.5C 277.833,330.5 236.167,330.5 194.5,330.5C 194.5,329.5 194.5,328.5 194.5,327.5 Z"/></g>
<g><path style="opacity:1" fill="#dccbba" d="M 195.5,327.5 C 239.833,327.5 284.167,327.5 328.5,327.5C 306.677,328.833 284.51,329.5 262,329.5C 239.49,329.5 217.323,328.833 195.5,327.5 Z"/></g>
<g><path style="opacity:1" fill="#fef5e5" d="M 194.5,327.5 C 194.5,328.5 194.5,329.5 194.5,330.5C 236.167,330.5 277.833,330.5 319.5,330.5C 277.003,331.499 234.337,331.832 191.5,331.5C 191.5,330.167 191.5,328.833 191.5,327.5C 192.5,327.5 193.5,327.5 194.5,327.5 Z"/></g>
<g><path style="opacity:1" fill="#fbfdfa" d="M 191.5,333.5 C 234.168,333.333 276.835,333.5 319.5,334C 321.5,334.333 323.5,334.667 325.5,335C 324.692,335.308 324.025,335.808 323.5,336.5C 327.371,338.126 331.371,339.126 335.5,339.5C 335.5,340.833 335.5,342.167 335.5,343.5C 334.5,343.5 333.5,343.5 332.5,343.5C 308.943,342.196 285.276,341.53 261.5,341.5C 238.352,341.51 215.352,342.177 192.5,343.5C 191.194,340.08 190.86,336.746 191.5,333.5 Z"/></g>
<g><path style="opacity:1" fill="#fdf8ec" d="M 191.5,333.5 C 190.86,336.746 191.194,340.08 192.5,343.5C 215.352,342.177 238.352,341.51 261.5,341.5C 285.276,341.53 308.943,342.196 332.5,343.5C 332.082,344.222 331.416,344.722 330.5,345C 334.304,346.494 333.971,347.328 329.5,347.5C 329.737,346.209 329.404,345.209 328.5,344.5C 283.828,344.167 239.162,344.5 194.5,345.5C 194.624,346.107 194.957,346.44 195.5,346.5C 239.33,347.499 283.33,347.832 327.5,347.5C 327.082,348.222 326.416,348.722 325.5,349C 280.835,349.5 236.168,349.667 191.5,349.5C 191.5,352.833 191.5,356.167 191.5,359.5C 235.553,360.124 279.553,359.457 323.5,357.5C 326.575,357.407 328.575,358.74 329.5,361.5C 284.572,360.506 239.572,360.172 194.5,360.5C 194.5,361.5 194.5,362.5 194.5,363.5C 239.167,363.5 283.833,363.5 328.5,363.5C 328.389,364.117 328.056,364.617 327.5,365C 286.163,365.167 244.829,365.667 203.5,366.5C 204.833,367.167 206.167,367.833 207.5,368.5C 202.167,369.833 196.833,369.833 191.5,368.5C 196.363,366.325 195.697,365.325 189.5,365.5C 189.5,358.167 189.5,350.833 189.5,343.5C 189.927,340.212 189.26,337.212 187.5,334.5C 185.5,333.167 183.5,333.167 181.5,334.5C 183.005,335.842 183.672,337.508 183.5,339.5C 178.167,339.5 172.833,339.5 167.5,339.5C 167.328,337.508 167.995,335.842 169.5,334.5C 167.352,333.023 166.018,331.023 165.5,328.5C 166.795,325.621 167.462,322.621 167.5,319.5C 166.167,319.5 164.833,319.5 163.5,319.5C 163.238,318.022 163.571,316.689 164.5,315.5C 171.968,317.256 179.635,318.09 187.5,318C 185.37,318.967 183.37,320.134 181.5,321.5C 179.028,320.008 176.361,319.342 173.5,319.5C 173.328,321.492 173.995,323.158 175.5,324.5C 179.445,325.491 183.445,325.824 187.5,325.5C 187.351,328.607 187.851,331.607 189,334.5C 189.671,333.748 190.504,333.414 191.5,333.5 Z"/></g>
<g><path style="opacity:1" fill="#f1994e" d="M 175.5,327.5 C 175.5,328.833 175.5,330.167 175.5,331.5C 174.167,331.5 172.833,331.5 171.5,331.5C 171.5,330.167 171.5,328.833 171.5,327.5C 172.833,327.5 174.167,327.5 175.5,327.5 Z"/></g>
<g><path style="opacity:1" fill="#dea776" d="M 175.5,327.5 C 174.167,327.5 172.833,327.5 171.5,327.5C 171.5,328.833 171.5,330.167 171.5,331.5C 172.833,331.5 174.167,331.5 175.5,331.5C 169.944,333.926 167.944,332.259 169.5,326.5C 171.912,325.051 173.912,325.384 175.5,327.5 Z"/></g>
<g><path style="opacity:1" fill="#d2915a" d="M 180.5,326.5 C 184.938,325.425 186.938,327.092 186.5,331.5C 184.167,331.5 181.833,331.5 179.5,331.5C 179.366,329.708 179.699,328.042 180.5,326.5 Z"/></g>
<g><path style="opacity:1" fill="#d9cbba" d="M 328.5,344.5 C 284.513,346.495 240.179,347.161 195.5,346.5C 194.957,346.44 194.624,346.107 194.5,345.5C 239.162,344.5 283.828,344.167 328.5,344.5 Z"/></g>
<g><path style="opacity:1" fill="#f6e7d7" d="M 328.5,344.5 C 329.404,345.209 329.737,346.209 329.5,347.5C 328.833,347.5 328.167,347.5 327.5,347.5C 283.33,347.832 239.33,347.499 195.5,346.5C 240.179,347.161 284.513,346.495 328.5,344.5 Z"/></g>
<g><path style="opacity:1" fill="#e9fdfe" d="M 186.5,342.5 C 180.167,342.5 173.833,342.5 167.5,342.5C 167.5,349.833 167.5,357.167 167.5,364.5C 174.167,364.5 180.833,364.5 187.5,364.5C 187.5,357.167 187.5,349.833 187.5,342.5C 188.167,342.833 188.833,343.167 189.5,343.5C 189.5,350.833 189.5,358.167 189.5,365.5C 188.2,366.108 186.867,366.775 185.5,367.5C 180.532,364.954 175.532,364.954 170.5,367.5C 169.5,367.167 168.5,366.833 167.5,366.5C 165.573,358.368 164.906,350.035 165.5,341.5C 172.687,341.175 179.687,341.509 186.5,342.5 Z"/></g>
<g><path style="opacity:1" fill="#7aaac9" d="M 186.5,342.5 C 186.833,342.5 187.167,342.5 187.5,342.5C 187.5,349.833 187.5,357.167 187.5,364.5C 180.833,364.5 174.167,364.5 167.5,364.5C 167.5,357.167 167.5,349.833 167.5,342.5C 173.833,342.5 180.167,342.5 186.5,342.5 Z"/></g>
<g><path style="opacity:1" fill="#6c442a" d="M 143.5,203.5 C 144.167,204.167 144.833,204.833 145.5,205.5C 145.333,265.501 145.5,325.501 146,385.5C 146.322,388.666 147.489,391.333 149.5,393.5C 149.5,394.167 149.5,394.833 149.5,395.5C 148.265,395.279 147.265,394.612 146.5,393.5C 145.285,390.191 144.285,386.858 143.5,383.5C 143.5,323.5 143.5,263.5 143.5,203.5 Z"/></g>
<g><path style="opacity:1" fill="#50a3de" d="M 169.5,343.5 C 174.739,342.963 179.739,343.63 184.5,345.5C 185.496,351.463 185.829,357.463 185.5,363.5C 180.167,363.5 174.833,363.5 169.5,363.5C 169.5,356.833 169.5,350.167 169.5,343.5 Z"/></g>
<g><path style="opacity:1" fill="#e1d1c2" d="M 329.5,361.5 C 329.672,362.492 329.338,363.158 328.5,363.5C 283.833,363.5 239.167,363.5 194.5,363.5C 194.5,362.5 194.5,361.5 194.5,360.5C 239.572,360.172 284.572,360.506 329.5,361.5 Z"/></g>
<g><path style="opacity:1" fill="#f5eee3" d="M 223.5,377.5 C 225.379,377.393 225.712,377.893 224.5,379C 226.81,379.497 229.143,379.663 231.5,379.5C 231.5,382.833 231.5,386.167 231.5,389.5C 227.422,389.848 223.588,389.181 220,387.5C 217.032,388.12 213.699,388.787 210,389.5C 207.24,389.18 204.573,388.514 202,387.5C 196.637,389.409 191.137,389.909 185.5,389C 183.869,387.164 183.202,387.664 183.5,390.5C 178.57,390.803 173.737,390.469 169,389.5C 168.667,390.167 168.333,390.833 168,391.5C 164.635,387.234 165.135,383.401 169.5,380C 186.833,379.667 204.167,379.333 221.5,379C 222.416,378.722 223.082,378.222 223.5,377.5 Z"/></g>
<g><path style="opacity:1" fill="#eee3d6" d="M 239.5,380.5 C 248.839,380.334 258.173,380.5 267.5,381C 268.444,383.719 268.777,386.552 268.5,389.5C 258.828,389.666 249.161,389.5 239.5,389C 238.214,386.168 238.214,383.335 239.5,380.5 Z"/></g>
<g><path style="opacity:1" fill="#f5ede2" d="M 309.5,378.5 C 314.668,377.104 318.168,379.104 320,384.5C 320.273,382.899 320.773,381.399 321.5,380C 326.308,380.072 330.808,379.239 335,377.5C 335.667,380.5 335.667,383.5 335,386.5C 330.937,389.56 326.437,390.227 321.5,388.5C 320.923,386.45 319.59,385.45 317.5,385.5C 317.5,386.833 317.5,388.167 317.5,389.5C 312.66,389.915 307.993,389.248 303.5,387.5C 301.469,388.539 300.136,390.205 299.5,392.5C 296.275,393.941 293.275,393.607 290.5,391.5C 289.205,387.62 289.205,383.786 290.5,380C 294.555,379.768 298.555,379.268 302.5,378.5C 303.298,380.078 303.798,381.744 304,383.5C 304.309,382.234 304.809,381.067 305.5,380C 308.5,379.667 311.5,379.333 314.5,379C 312.866,378.506 311.199,378.34 309.5,378.5 Z"/></g>
<g><path style="opacity:1" fill="#eee3d5" d="M 275.5,380.5 C 283.657,378.486 286.324,381.319 283.5,389C 280.854,389.497 278.187,389.664 275.5,389.5C 275.5,386.5 275.5,383.5 275.5,380.5 Z"/></g>
<g><path style="opacity:1" fill="#543d2b" d="M 159.5,401.5 C 220.125,402.492 280.792,402.826 341.5,402.5C 281.002,403.499 220.336,403.832 159.5,403.5C 159.5,402.833 159.5,402.167 159.5,401.5 Z"/></g>
<g><path style="opacity:1" fill="#75492e" d="M 345.5,401.5 C 347.435,402.15 349.435,402.483 351.5,402.5C 353.255,404.914 355.589,406.581 358.5,407.5C 361.313,405.672 364.313,404.339 367.5,403.5C 367.771,405.38 367.104,406.713 365.5,407.5C 362.968,408.68 360.301,409.68 357.5,410.5C 355.359,412.204 353.359,413.87 351.5,415.5C 346.167,415.5 340.833,415.5 335.5,415.5C 305.174,414.167 274.507,413.5 243.5,413.5C 212.493,413.5 181.826,414.167 151.5,415.5C 148.757,413.477 146.09,411.477 143.5,409.5C 146.932,409.757 150.266,410.424 153.5,411.5C 153.5,410.167 153.5,408.833 153.5,407.5C 164.832,408.111 176.165,408.778 187.5,409.5C 211.483,408.954 235.483,408.954 259.5,409.5C 274.167,409.167 288.833,408.833 303.5,408.5C 308.833,407.833 314.167,407.167 319.5,406.5C 265.827,406.164 212.494,405.164 159.5,403.5C 220.336,403.832 281.002,403.499 341.5,402.5C 342.833,402.167 344.167,401.833 345.5,401.5 Z"/></g>
<g><path style="opacity:1" fill="#744224" d="M 335.5,415.5 C 274.167,415.5 212.833,415.5 151.5,415.5C 181.826,414.167 212.493,413.5 243.5,413.5C 274.507,413.5 305.174,414.167 335.5,415.5 Z"/></g>
<g><path style="opacity:1" fill="#6b4d3f" d="M 151.5,416.5 C 151.5,416.167 151.5,415.833 151.5,415.5C 212.833,415.5 274.167,415.5 335.5,415.5C 306.174,416.833 276.508,417.5 246.5,417.5C 214.818,417.478 183.151,417.144 151.5,416.5 Z"/></g>
<g><path style="opacity:1" fill="#5e5e51" d="M 335.5,415.5 C 340.833,415.5 346.167,415.5 351.5,415.5C 351.5,416.833 351.5,418.167 351.5,419.5C 285.497,419.833 219.497,419.5 153.5,418.5C 152.757,417.818 152.091,417.151 151.5,416.5C 183.151,417.144 214.818,417.478 246.5,417.5C 276.508,417.5 306.174,416.833 335.5,415.5 Z"/></g>
<g><path style="opacity:1" fill="#5c5e5d" d="M 335.5,425.5 C 287.5,425.5 239.5,425.5 191.5,425.5C 191.5,424.167 191.5,422.833 191.5,421.5C 239.5,421.5 287.5,421.5 335.5,421.5C 335.5,422.833 335.5,424.167 335.5,425.5 Z"/></g>
<g><path style="opacity:1" fill="#516559" d="M 191.5,425.5 C 239.5,425.5 287.5,425.5 335.5,425.5C 335.5,426.833 335.5,428.167 335.5,429.5C 287.5,429.5 239.5,429.5 191.5,429.5C 191.5,428.167 191.5,426.833 191.5,425.5 Z"/></g>
<g><path style="opacity:1" fill="#5d5e60" d="M 191.5,429.5 C 239.5,429.5 287.5,429.5 335.5,429.5C 311.843,430.833 287.843,431.5 263.5,431.5C 239.157,431.5 215.157,430.833 191.5,429.5 Z"/></g>
</svg>
